<svg width="276" height="57" viewBox="0 0 276 57" fill="none" xmlns="http://www.w3.org/2000/svg">
<g clip-path="url(#clip0_180_43)">
<mask id="mask0_180_43" style="mask-type:luminance" maskUnits="userSpaceOnUse" x="0" y="0" width="276" height="57">
<path d="M275.892 0H0V56.0406H275.892V0Z" fill="white"/>
</mask>
<g mask="url(#mask0_180_43)">
<path fill-rule="evenodd" clip-rule="evenodd" d="M34.6618 28.5844C34.5833 28.2783 34.3222 27.8542 34.2093 27.717C34.1188 27.6282 34.0273 27.4773 33.9756 27.2859L33.9859 27.048L34.0756 25.2263L34.0799 25.1995C34.1169 24.9305 34.3023 23.5545 34.3023 22.8338C34.3023 22.1216 33.8498 21.1758 33.7539 20.9844C33.9178 19.6058 33.8222 17.3952 33.8118 17.2167C33.8307 17.0969 33.9583 16.1631 33.9583 15.7976C33.9583 15.4364 33.9583 14.8312 33.4255 14.0122C32.8634 13.1465 32.0478 13.0732 31.1985 13.0732C31.196 13.0732 31.1934 13.0732 31.1916 13.0732C31.0538 13.0534 30.0054 12.5343 29.2647 12.155L29.2931 11.2083C29.457 10.9842 29.4674 10.8962 29.4707 10.8669C29.4794 10.7971 29.5294 10.4307 29.5811 10.0427L29.582 10.0349C29.8139 9.92458 29.9872 9.62283 30.0243 9.46332C30.0312 9.43229 30.0407 9.39867 30.0484 9.36332C30.126 9.05553 30.2131 8.70462 30.0062 8.59685C29.988 8.58737 29.9691 8.5796 29.9502 8.5753C30.0087 8.28906 30.039 7.89678 29.9243 7.18377C29.7914 6.35782 28.7449 6.06641 27.8912 6.06641H27.8663C26.9964 6.06641 25.9462 6.35954 25.8557 7.1898C25.7885 7.8097 25.7781 8.26664 25.8229 8.57616C25.8057 8.58133 25.7868 8.58823 25.7704 8.59685C25.5626 8.70462 25.6496 9.05553 25.7272 9.36332C25.7351 9.39867 25.7445 9.43229 25.7513 9.46332C25.792 9.64265 25.9695 9.92028 26.1824 10.0298L26.1842 10.0479C26.2376 10.4333 26.2868 10.7971 26.2945 10.8669C26.3005 10.9187 26.3248 10.979 26.3704 11.0575L26.4221 12.1567C25.6816 12.5361 24.634 13.0542 24.503 13.0741C23.6442 13.0741 22.827 13.1456 22.2622 14.013C21.7286 14.8329 21.7286 15.4373 21.7286 15.7984C21.7286 16.1631 21.8571 17.0977 21.8743 17.2177C21.8656 17.396 21.7699 19.6067 21.9329 20.9853C21.8363 21.1758 21.3845 22.1216 21.3845 22.8346C21.3845 23.5554 21.5707 24.9322 21.607 25.2004L21.6105 25.2271L21.7087 27.1998C21.663 27.4325 21.5578 27.6153 21.4536 27.7187C21.3388 27.8559 21.0794 28.2801 21.0018 28.5861C20.8905 29.0707 20.4206 29.8258 20.4465 29.9466C20.5302 30.1044 20.6715 30.1621 20.7992 30.0863C20.9388 29.9914 21.2639 29.6492 21.3069 29.4794C21.369 29.6888 21.638 31.2063 21.7423 31.3908C21.7795 31.5623 21.8924 31.7166 22.0217 31.72C22.1406 31.6778 22.2131 31.6218 22.2131 31.6218C22.2494 31.7899 22.3131 31.9994 22.545 32.0124C22.6579 31.9942 22.7045 31.9132 22.6959 31.8028C22.7847 31.8321 23.0053 31.77 23.0666 31.6114C23.1174 31.4734 23.152 31.2976 23.1666 31.2088C23.1726 31.176 23.1649 31.1847 23.1666 31.2088C23.1701 31.2432 23.2071 31.2864 23.2926 31.2907C23.3787 31.2787 23.4451 31.2268 23.4744 30.9062C23.4943 30.7019 23.49 30.0958 23.4831 30.0647C23.4761 30.0337 23.4443 29.5931 23.4322 29.387C23.4925 29.15 23.4589 28.4042 23.4287 28.2679C23.3951 28.1145 23.3382 27.9981 23.1433 27.6886C23.1614 27.4239 23.1674 27.205 23.1709 27.1205C23.177 27.042 23.183 26.9584 23.1857 26.892C23.2037 26.548 23.2295 26.1919 23.233 26.1203C23.2658 26.0109 23.3314 25.8479 23.4088 25.6591C23.6425 25.09 23.9978 24.227 23.9823 23.4131C23.9719 22.8087 23.9555 22.3035 23.946 22.0578C23.94 21.8819 23.9331 21.7406 23.9296 21.6439C23.9254 21.5888 23.9244 21.543 23.9184 21.5069L23.9219 21.4819C23.9804 20.9448 24.0925 19.9033 24.1383 19.1619C24.2969 19.6144 24.5392 20.2128 24.8617 20.7568C24.8608 21.5336 24.8374 22.026 24.8194 22.4216C24.8065 22.6673 24.7978 22.8656 24.7961 23.0683C24.6892 23.2313 24.2452 23.9847 24.2401 25.1022C24.0632 25.7487 23.8831 26.4677 23.8736 26.9135V26.9196V26.9239C23.8779 26.9713 24.2029 31.6563 24.5556 32.9064C24.6193 33.1297 24.6936 33.3746 24.7712 33.6324C25.0807 34.6617 25.4661 35.9429 25.4358 36.7103C25.4246 37.0258 25.3333 37.2966 25.2289 37.6095C25.0194 38.2294 24.7832 38.9347 25.066 40.2684C25.2988 41.3625 25.4566 41.8444 25.6083 42.3127C25.7333 42.7014 25.8532 43.0678 26.0126 43.761C26.0825 44.0636 26.1394 44.3111 26.1876 44.518C26.3739 45.3173 26.4144 45.4888 26.4188 45.775C26.3566 45.8173 26.2661 45.8914 26.2067 46.001C26.1471 46.1096 26.1446 46.2768 26.2058 46.3966C26.0859 46.5079 25.9506 46.6174 25.8713 46.67C25.7644 46.7459 25.6066 46.9122 25.5651 46.9588C25.497 47.0114 25.4694 47.0933 25.4566 47.1546C25.3893 47.1984 25.3488 47.2623 25.347 47.3399C25.3445 47.4477 25.4178 47.552 25.5211 47.5942C25.5842 47.6175 25.6514 47.6218 25.7023 47.6123C25.7419 47.6347 25.7988 47.6519 25.8798 47.6589C25.9713 47.6683 26.0359 47.6571 26.0859 47.6407C26.1222 47.6615 26.173 47.6735 26.2394 47.6735C26.342 47.6735 26.4153 47.6563 26.4678 47.6305C26.5145 47.6675 26.5774 47.6959 26.6644 47.6959H26.6878C26.874 47.6959 26.9954 47.6442 27.0688 47.589C27.1542 47.6477 27.2972 47.7019 27.5456 47.6787C27.6749 47.6666 27.774 47.6355 27.8422 47.589C27.9111 47.6365 28.0093 47.6675 28.1405 47.6787C28.3879 47.7011 28.5309 47.6477 28.6172 47.589C28.6914 47.6442 28.8103 47.6959 28.9975 47.6959H29.0191C29.1052 47.6959 29.1708 47.6675 29.2165 47.6305C29.269 47.6563 29.3431 47.6735 29.4415 47.6735H29.4518C29.5156 47.6735 29.5639 47.6615 29.6001 47.6407C29.6501 47.658 29.7148 47.6675 29.8036 47.6589C29.8838 47.6519 29.9415 47.6355 29.9803 47.6123C30.0312 47.6226 30.1019 47.6183 30.164 47.5942C30.2665 47.552 30.3406 47.4477 30.3381 47.3399C30.3355 47.2623 30.295 47.1984 30.2269 47.1546C30.2157 47.0942 30.1872 47.0114 30.1191 46.9588C30.0786 46.9122 29.9208 46.7459 29.8139 46.67C29.7354 46.6166 29.6001 46.5079 29.4803 46.3966C29.5415 46.2768 29.5397 46.1096 29.4794 46.001C29.4191 45.8914 29.3294 45.8173 29.2665 45.775C29.2717 45.4888 29.3113 45.3173 29.4983 44.518C29.5467 44.3111 29.6044 44.0636 29.6752 43.761C29.8329 43.0678 29.9527 42.7014 30.0795 42.3127C30.2321 41.8444 30.3881 41.3617 30.6192 40.2684C30.9029 38.9347 30.6667 38.2294 30.4579 37.6095C30.3537 37.2966 30.2622 37.0258 30.2501 36.7103C30.2208 35.9421 30.6054 34.6617 30.9158 33.6324C30.9934 33.3746 31.0666 33.1297 31.1295 32.9064C31.4848 31.6563 31.8081 26.9704 31.8107 26.9239V26.9196V26.9135C31.8012 26.4677 31.6219 25.7487 31.4451 25.1022C31.4409 23.9856 30.9959 23.2321 30.889 23.0683C30.8882 22.8656 30.8786 22.6673 30.8666 22.4216C30.8477 22.026 30.8236 21.5336 30.8226 20.7568C31.1468 20.2128 31.3882 19.6144 31.5459 19.1619C31.5926 19.9033 31.7038 20.9448 31.7632 21.4819L31.7659 21.5069C31.7599 21.543 31.7589 21.5888 31.7555 21.6439C31.752 21.7406 31.746 21.8819 31.7383 22.0578C31.7314 22.3035 31.7132 22.8087 31.7028 23.4131C31.6866 24.227 32.0417 25.09 32.2754 25.6591C32.3521 25.8469 32.4193 26.0109 32.4521 26.1203C32.4556 26.2048 32.4762 26.6566 32.4857 27.035C32.4892 27.1454 32.4918 27.3359 32.4918 27.3359L32.4961 27.3386C32.5004 27.4377 32.5056 27.5576 32.515 27.6886C32.3193 27.9981 32.2616 28.1145 32.2306 28.2679C32.2003 28.4042 32.1659 29.15 32.2263 29.387C32.2134 29.5931 32.1831 30.0337 32.1762 30.0647C32.1694 30.0948 32.165 30.701 32.184 30.9062C32.2142 31.2268 32.2815 31.2795 32.3668 31.2907C32.4521 31.2864 32.4892 31.2432 32.4918 31.2088C32.4936 31.1847 32.4857 31.176 32.4918 31.2088C32.5081 31.2976 32.5418 31.4734 32.5918 31.6114C32.6539 31.77 32.8763 31.8321 32.9625 31.8028C32.954 31.9132 32.9996 31.9952 33.1134 32.0124C33.3479 31.9994 33.4108 31.7899 33.4463 31.6218C33.4463 31.6218 33.5195 31.6778 33.6376 31.72C33.7661 31.7166 33.8799 31.5623 33.916 31.3908C34.0204 31.2063 34.2886 29.6888 34.3523 29.4794C34.3955 29.6492 34.7213 29.9914 34.861 30.0863C34.9878 30.1621 35.1292 30.1044 35.2128 29.9466C35.2421 29.825 34.773 29.0689 34.6618 28.5844ZM27.7758 33.0944C27.7758 33.0884 27.8034 32.7486 27.8387 32.3547L27.9128 33.0917C27.9396 33.6065 27.8964 34.2505 27.8439 34.8256C27.793 34.2505 27.7499 33.6065 27.7758 33.0944ZM27.9784 46.7191C27.9904 46.7683 27.9215 46.902 27.8524 46.9916C27.8499 46.9933 27.8473 46.9958 27.843 46.9993C27.8404 46.9958 27.8379 46.9933 27.836 46.9916C27.7663 46.902 27.6982 46.7675 27.7102 46.7191C27.8534 46.1519 27.7343 45.8329 27.731 45.8242C27.6413 45.5527 27.4886 43.1645 27.6154 42.5333L27.6447 42.3885C27.7283 41.9686 27.8059 41.5893 27.843 41.1107C27.8827 41.5902 27.9585 41.9686 28.044 42.3885L28.0714 42.5333C28.1982 43.1645 28.0465 45.5527 27.9585 45.8208C27.9543 45.832 27.8352 46.151 27.9784 46.7191Z" fill="white"/>
<path d="M55.2384 55.4574C46.897 53.0726 40.5808 41.8946 40.5808 28.4519C40.5808 15.009 46.897 3.83191 55.2384 1.44545V1.36182C44.3571 3.56465 36.0673 14.8486 36.0673 28.4519C36.0673 42.0534 44.3561 53.3373 55.2376 55.5401L55.2384 55.4574Z" fill="white"/>
<path d="M0.423553 1.44458C8.76498 3.83191 15.0812 15.009 15.0812 28.4511C15.0812 41.8946 8.76412 53.0726 0.423553 55.4574V55.5401C11.3049 53.3373 19.5937 42.0534 19.5937 28.4511C19.5937 14.8486 11.3049 3.56465 0.423553 1.36182V1.44458Z" fill="white"/>
<path d="M71.7466 14.7209H56.6354V21.6665H70.0299V25.8645H56.6354V33.0377H71.938V37.2364H51.941V10.5239H71.7466V14.7209Z" fill="white"/>
<path d="M96.503 37.2361L88.9591 26.9859L81.3722 37.2361H75.5913L86.0468 23.4665L76.0017 10.1633H81.9472L89.0815 19.8704L96.2564 10.1633H102.038L92.0336 23.3898L102.448 37.237L96.503 37.2361Z" fill="white"/>
<path d="M117.394 28.6491H112.09V37.2364H107.396V10.5239H117.928C124.149 10.5239 128.078 14.0347 128.078 19.4912C128.078 25.5195 123.27 28.6491 117.394 28.6491ZM117.545 14.7985H112.089V24.4143H117.545C121.095 24.4143 123.308 22.4684 123.308 19.606C123.309 16.4384 121.057 14.7985 117.545 14.7985Z" fill="white"/>
<path d="M152.693 14.7209H137.581V21.6665H150.976V25.8645H137.581V33.0377H152.884V37.2364H132.888V10.5239H152.693V14.7209Z" fill="white"/>
<path d="M175.587 37.2364L169.024 27.9241H163.147V37.2364H158.454V10.5239H170.361C176.504 10.5239 180.284 13.7674 180.284 18.9956C180.284 23.4228 177.65 26.0928 173.91 27.124L181.122 37.2372L175.587 37.2364ZM169.978 14.7985H163.147V23.765H170.016C173.374 23.765 175.512 22.0097 175.512 19.2619C175.512 16.3245 173.452 14.7985 169.978 14.7985Z" fill="white"/>
<path d="M197.225 37.2364H192.496V14.8735H184.022V10.5239H205.697V14.8735H197.227V37.2364H197.225Z" fill="white"/>
<path d="M223.787 30.6712H223.634L215.277 18.155V37.2356H210.661V10.5232H215.659L223.788 23.1539L231.915 10.5232H236.914V37.2364H232.221V18.0792L223.787 30.6712Z" fill="white"/>
<path d="M259.961 37.2356L253.397 27.9233H247.521V37.2356H242.829V10.5232H254.734C260.879 10.5232 264.656 13.7667 264.656 18.9948C264.656 23.422 262.023 26.0921 258.282 27.1232L265.496 37.2364L259.961 37.2356ZM254.351 14.7978H247.521V23.7643H254.39C257.75 23.7643 259.885 22.009 259.885 19.2613C259.885 16.3238 257.826 14.7978 254.351 14.7978Z" fill="white"/>
<path d="M275.379 10.5232V37.2364H270.685V10.5232H275.379Z" fill="white"/>
<path d="M69.6503 42.0583H75.3915L75.2604 42.6938H72.7628L71.2177 49.9472H70.4728L72.0179 42.6938H69.5193L69.6503 42.0583Z" fill="white"/>
<path d="M76.5865 47.2624C76.5211 47.5702 76.4987 47.8599 76.5211 48.1349C76.5427 48.4091 76.6125 48.647 76.7289 48.8462C76.8453 49.0479 77.0124 49.2082 77.2272 49.3298C77.4427 49.4496 77.7083 49.51 78.0222 49.51C78.4533 49.51 78.8455 49.3971 79.1999 49.1704C79.5542 48.9436 79.8267 48.6212 80.0162 48.2065H80.7509C80.6112 48.4763 80.4525 48.7273 80.274 48.9565C80.0957 49.1858 79.8887 49.3859 79.655 49.5592C79.4205 49.7298 79.1575 49.8643 78.8653 49.9583C78.5739 50.0532 78.248 50.1015 77.8902 50.1015C77.4375 50.1015 77.0634 50.0247 76.7669 49.8713C76.4711 49.7169 76.2452 49.5075 76.0883 49.2402C75.9304 48.9738 75.8418 48.6608 75.8193 48.2978C75.7978 47.9365 75.8305 47.5477 75.9184 47.1322C76.0055 46.7148 76.1486 46.3235 76.3451 45.9589C76.5427 45.594 76.7814 45.2742 77.0634 45.0018C77.3445 44.7276 77.6617 44.5112 78.0161 44.3543C78.3696 44.1965 78.7515 44.1189 79.161 44.1189C79.943 44.1189 80.5 44.3887 80.8319 44.9259C81.1646 45.4622 81.2173 46.2416 80.9905 47.2632L76.5865 47.2624ZM80.4103 46.7158C80.4689 46.439 80.4853 46.1768 80.4594 45.9329C80.4344 45.6889 80.3663 45.4769 80.2568 45.2984C80.1474 45.1182 79.9896 44.9759 79.786 44.8707C79.5809 44.7646 79.3335 44.7121 79.0411 44.7121C78.7489 44.7121 78.4807 44.7664 78.2351 44.875C77.9902 44.9863 77.7696 45.132 77.5729 45.3138C77.3755 45.4958 77.204 45.7079 77.0583 45.9485C76.9126 46.189 76.7953 46.4458 76.7073 46.7158H80.4103Z" fill="white"/>
<path d="M87.4766 46.06C87.455 45.6349 87.3274 45.3047 87.0929 45.0685C86.8592 44.8314 86.5229 44.7125 86.085 44.7125C85.7487 44.7125 85.4453 44.7814 85.1754 44.9202C84.9056 45.0591 84.6676 45.2435 84.4641 45.4738C84.2589 45.704 84.0908 45.9618 83.9598 46.2505C83.8288 46.5394 83.7296 46.8308 83.664 47.1231C83.5986 47.423 83.571 47.7136 83.5814 47.999C83.5926 48.2844 83.6511 48.5396 83.7572 48.7663C83.8632 48.9931 84.0218 49.1741 84.2331 49.3086C84.4452 49.4431 84.7228 49.5112 85.0659 49.5112C85.5557 49.5112 85.9772 49.3759 86.3316 49.1069C86.6859 48.8362 86.9507 48.4628 87.1256 47.9878H87.8266C87.7024 48.3007 87.5499 48.5878 87.3662 48.8474C87.1842 49.1086 86.9722 49.3311 86.7307 49.5156C86.4903 49.7026 86.2195 49.8458 85.9204 49.9483C85.6211 50.0509 85.2919 50.1027 84.934 50.1027C84.4814 50.1027 84.1072 50.026 83.8106 49.8724C83.515 49.7182 83.289 49.5087 83.1321 49.2414C82.9743 48.9749 82.8855 48.6594 82.8631 48.2939C82.8406 47.9284 82.8743 47.5378 82.9623 47.1231C83.0424 46.7264 83.1777 46.3497 83.3674 45.9894C83.5571 45.6272 83.7908 45.3073 84.0684 45.0297C84.346 44.7513 84.6659 44.5323 85.0272 44.3667C85.3892 44.2021 85.7815 44.1201 86.2057 44.1201C86.8635 44.1201 87.361 44.277 87.7016 44.5909C88.0412 44.9047 88.1887 45.3953 88.1456 46.0608L87.4766 46.06Z" fill="white"/>
<path d="M89.6562 49.9484L91.3322 42.0596H91.9901L91.3546 45.0625C91.6763 44.7848 91.9962 44.5581 92.3134 44.384C92.6315 44.2063 92.9877 44.1192 93.3816 44.1192C93.7326 44.1192 94.0454 44.1804 94.3188 44.3012C94.5921 44.421 94.799 44.6314 94.9379 44.9305C95.0327 45.1349 95.0706 45.3435 95.0525 45.559C95.0344 45.7755 94.9991 46.0005 94.9482 46.2333L94.1593 49.9474H93.5024L94.2912 46.2445C94.4007 45.7323 94.3696 45.3487 94.1981 45.0935C94.0265 44.8392 93.6782 44.7116 93.1523 44.7116C92.948 44.7116 92.7548 44.7408 92.5721 44.8029C92.3901 44.8659 92.2195 44.9478 92.0626 45.0486C91.9047 45.153 91.7642 45.2694 91.6409 45.4004C91.5167 45.5324 91.4142 45.6711 91.334 45.816C91.2314 45.9996 91.1547 46.1738 91.1039 46.3419C91.052 46.51 91.0047 46.692 90.9607 46.8911L90.3141 49.9466H89.6562V49.9484Z" fill="white"/>
<path d="M97.3383 49.948H96.6804L97.8857 44.2724H98.5436L98.3799 45.0622C98.7014 44.7845 99.0204 44.5578 99.3386 44.3835C99.6566 44.206 100.013 44.1189 100.407 44.1189C100.758 44.1189 101.07 44.1801 101.344 44.3009C101.618 44.4207 101.824 44.6311 101.963 44.9302C102.058 45.1345 102.096 45.3432 102.078 45.5587C102.059 45.7752 102.024 46.0002 101.973 46.2329L101.184 49.9471H100.527L101.315 46.2441C101.426 45.732 101.394 45.3484 101.222 45.0932C101.051 44.8389 100.702 44.7112 100.177 44.7112C99.9722 44.7112 99.779 44.7405 99.5964 44.8026C99.4135 44.8655 99.2437 44.9475 99.0868 45.0483C98.9291 45.1527 98.7884 45.269 98.6651 45.4001C98.541 45.532 98.4384 45.6708 98.3583 45.8157C98.2556 45.9993 98.1789 46.1735 98.1281 46.3416C98.0763 46.5097 98.0289 46.6916 97.9849 46.8908L97.3383 49.948Z" fill="white"/>
<path d="M105.928 50.1015C105.562 50.0946 105.235 50.0282 104.947 49.9041C104.658 49.7808 104.421 49.5945 104.234 49.3462C104.048 49.0988 103.926 48.7867 103.868 48.4151C103.809 48.0417 103.832 47.6073 103.933 47.1098C104.021 46.6942 104.158 46.3053 104.345 45.9433C104.531 45.5803 104.763 45.2656 105.04 44.9966C105.318 44.726 105.637 44.5112 105.999 44.3543C106.36 44.1965 106.76 44.1189 107.198 44.1189C107.644 44.1189 108.015 44.1974 108.312 44.3543C108.607 44.5112 108.835 44.7241 108.996 44.9906C109.157 45.2569 109.251 45.5716 109.281 45.9373C109.311 46.3036 109.281 46.6934 109.193 47.1089C109.099 47.5616 108.949 47.972 108.744 48.3375C108.541 48.7013 108.295 49.0168 108.011 49.2798C107.726 49.5419 107.406 49.7445 107.052 49.8877C106.696 50.0299 106.322 50.1015 105.928 50.1015ZM108.491 47.1098C108.556 46.7744 108.586 46.4606 108.579 46.1675C108.571 45.8752 108.515 45.6216 108.409 45.4061C108.303 45.1905 108.142 45.0207 107.927 44.8966C107.711 44.7725 107.428 44.7112 107.078 44.7112C106.735 44.7112 106.426 44.7777 106.152 44.9138C105.879 45.0467 105.639 45.2277 105.434 45.4501C105.229 45.6735 105.061 45.9286 104.93 46.2175C104.799 46.5062 104.7 46.8028 104.634 47.1089C104.562 47.4607 104.536 47.7823 104.558 48.0789C104.58 48.3755 104.649 48.6281 104.766 48.8402C104.883 49.0531 105.049 49.2169 105.265 49.335C105.481 49.4506 105.746 49.5092 106.06 49.5092C106.403 49.5092 106.711 49.4411 106.985 49.3066C107.26 49.1721 107.497 48.9911 107.698 48.7642C107.898 48.5376 108.065 48.2823 108.197 47.9969C108.327 47.7124 108.425 47.4167 108.491 47.1098Z" fill="white"/>
<path d="M110.825 49.9484L112.501 42.0596H113.158L111.482 49.9484H110.825Z" fill="white"/>
<path d="M116.315 50.1015C115.949 50.0946 115.623 50.0282 115.334 49.9041C115.046 49.7808 114.809 49.5945 114.622 49.3462C114.436 49.0988 114.313 48.7867 114.255 48.4151C114.196 48.0417 114.219 47.6073 114.321 47.1098C114.409 46.6942 114.545 46.3053 114.731 45.9433C114.917 45.5803 115.149 45.2656 115.428 44.9966C115.704 44.726 116.024 44.5112 116.386 44.3543C116.748 44.1965 117.148 44.1189 117.586 44.1189C118.031 44.1189 118.403 44.1974 118.699 44.3543C118.995 44.5112 119.223 44.7241 119.383 44.9906C119.545 45.2569 119.639 45.5716 119.669 45.9373C119.698 46.3036 119.669 46.6934 119.581 47.1089C119.486 47.5616 119.336 47.972 119.132 48.3375C118.927 48.7013 118.682 49.0168 118.398 49.2798C118.113 49.5419 117.793 49.7445 117.439 49.8877C117.083 50.0299 116.709 50.1015 116.315 50.1015ZM118.878 47.1098C118.944 46.7744 118.973 46.4606 118.966 46.1675C118.958 45.8752 118.902 45.6216 118.796 45.4061C118.689 45.1905 118.53 45.0207 118.314 44.8966C118.099 44.7725 117.815 44.7112 117.465 44.7112C117.122 44.7112 116.813 44.7777 116.539 44.9138C116.266 45.0467 116.026 45.2277 115.821 45.4501C115.617 45.6735 115.448 45.9286 115.317 46.2175C115.186 46.5062 115.087 46.8028 115.022 47.1089C114.949 47.4607 114.923 47.7823 114.945 48.0789C114.967 48.3755 115.036 48.6281 115.153 48.8402C115.27 49.0531 115.436 49.2169 115.652 49.335C115.867 49.4506 116.132 49.5092 116.446 49.5092C116.789 49.5092 117.098 49.4411 117.372 49.3066C117.646 49.1721 117.883 48.9911 118.084 48.7642C118.285 48.5376 118.451 48.2823 118.582 47.9969C118.714 47.7124 118.813 47.4167 118.878 47.1098Z" fill="white"/>
<path d="M126.701 44.2726H127.359L126.274 49.4007C126.194 49.7809 126.077 50.143 125.929 50.4904C125.779 50.837 125.576 51.1423 125.321 51.4061C125.064 51.6691 124.748 51.8785 124.372 52.0355C123.996 52.1924 123.537 52.2708 122.997 52.2708C122.581 52.2708 122.234 52.2183 121.956 52.1122C121.679 52.0062 121.461 51.8725 121.305 51.7121C121.147 51.551 121.042 51.3725 120.986 51.1811C120.932 50.9862 120.918 50.8052 120.948 50.6388H121.649C121.649 50.8509 121.689 51.0242 121.77 51.1596C121.85 51.2932 121.958 51.4001 122.093 51.4767C122.229 51.5544 122.383 51.6062 122.559 51.6355C122.734 51.6639 122.921 51.6803 123.118 51.6803C123.563 51.6803 123.938 51.6019 124.241 51.4483C124.544 51.2957 124.793 51.0957 124.986 50.8474C125.18 50.5983 125.329 50.3181 125.435 50.0025C125.54 49.6886 125.627 49.3688 125.692 49.0404C125.407 49.3887 125.06 49.656 124.651 49.8335C124.242 50.0137 123.837 50.1033 123.435 50.1033C123.004 50.1033 122.646 50.0207 122.361 49.8577C122.076 49.6913 121.858 49.4723 121.709 49.199C121.559 48.9248 121.472 48.6058 121.446 48.2403C121.42 47.8764 121.451 47.4945 121.539 47.1005C121.627 46.6848 121.757 46.2944 121.934 45.9297C122.109 45.5632 122.328 45.2485 122.591 44.9804C122.854 44.7149 123.163 44.5036 123.517 44.351C123.871 44.1976 124.278 44.1208 124.739 44.1208C124.92 44.1208 125.102 44.1476 125.281 44.1976C125.46 44.2493 125.628 44.3226 125.785 44.4174C125.942 44.5115 126.081 44.6329 126.202 44.7786C126.322 44.9252 126.411 45.0891 126.47 45.2718H126.491L126.701 44.2726ZM126.098 47.1332C126.171 46.7892 126.197 46.4685 126.175 46.1736C126.152 45.877 126.084 45.6219 125.966 45.4063C125.849 45.1908 125.685 45.0209 125.473 44.8967C125.26 44.7726 125.001 44.7114 124.695 44.7114C124.418 44.7114 124.151 44.7606 123.895 44.8589C123.639 44.9571 123.404 45.1011 123.189 45.2917C122.974 45.4814 122.786 45.7132 122.631 45.9883C122.474 46.2608 122.355 46.5788 122.274 46.9349C122.186 47.2936 122.147 47.6273 122.154 47.9376C122.161 48.248 122.222 48.5213 122.335 48.7541C122.448 48.9877 122.614 49.1722 122.833 49.3075C123.052 49.442 123.333 49.5103 123.677 49.5103C123.977 49.5103 124.258 49.4455 124.521 49.3171C124.784 49.1913 125.021 49.0196 125.233 48.8042C125.445 48.5869 125.626 48.3359 125.776 48.0471C125.925 47.7591 126.033 47.454 126.098 47.1332Z" fill="white"/>
<path d="M128.368 51.4829C128.448 51.4976 128.534 51.5115 128.625 51.526C128.716 51.5424 128.809 51.5485 128.904 51.5485C129.086 51.5485 129.249 51.4899 129.391 51.3735C129.534 51.2579 129.66 51.1182 129.769 50.9553C129.878 50.7923 129.979 50.6208 130.07 50.4432C130.161 50.2664 130.251 50.1147 130.339 49.9914L129.353 44.2727H130.086L130.876 49.1482L133.725 44.2727H134.437L131.128 49.8724C130.916 50.2286 130.723 50.5518 130.547 50.8346C130.372 51.12 130.197 51.3623 130.022 51.5649C129.847 51.7658 129.663 51.9192 129.474 52.0244C129.284 52.1296 129.076 52.184 128.849 52.184C128.733 52.184 128.622 52.1761 128.515 52.1624C128.409 52.1477 128.316 52.1288 128.236 52.108L128.368 51.4829Z" fill="white"/>
<path d="M141.637 40.9644V52.9397H141.078V40.9644H141.637Z" fill="white"/>
<path d="M149.347 47.5929C149.302 47.942 149.319 48.2404 149.392 48.486C149.466 48.7301 149.584 48.9283 149.752 49.0819C149.921 49.2353 150.129 49.3482 150.378 49.4163C150.626 49.4862 150.898 49.5207 151.198 49.5207C151.549 49.5207 151.862 49.4775 152.136 49.3879C152.408 49.3009 152.644 49.1836 152.837 49.0344C153.032 48.8835 153.189 48.7094 153.309 48.5136C153.431 48.3154 153.512 48.1085 153.554 47.8895C153.622 47.5825 153.606 47.3326 153.507 47.1446C153.406 46.9523 153.257 46.798 153.057 46.6782C152.855 46.5574 152.62 46.4609 152.351 46.3876C152.079 46.3152 151.802 46.2436 151.517 46.1738C151.231 46.1039 150.954 46.0221 150.685 45.9281C150.413 45.8332 150.183 45.7047 149.994 45.5453C149.804 45.384 149.666 45.1771 149.582 44.9262C149.498 44.6728 149.497 44.3537 149.577 43.9666C149.636 43.6968 149.748 43.433 149.917 43.1786C150.084 42.9218 150.301 42.6949 150.563 42.4992C150.828 42.301 151.14 42.1441 151.499 42.0276C151.862 41.9104 152.261 41.8518 152.7 41.8518C153.147 41.8518 153.521 41.9139 153.823 42.0388C154.127 42.163 154.365 42.3338 154.541 42.5467C154.717 42.7639 154.829 43.0148 154.881 43.2985C154.932 43.5839 154.922 43.8873 154.847 44.2072H154.137C154.202 43.9081 154.204 43.6493 154.141 43.4303C154.08 43.2114 153.976 43.0329 153.83 42.8942C153.683 42.7553 153.5 42.6536 153.277 42.5872C153.054 42.5225 152.819 42.4897 152.568 42.4897C152.19 42.4897 151.859 42.5424 151.577 42.6484C151.299 42.7545 151.062 42.8907 150.873 43.0596C150.682 43.2269 150.537 43.4139 150.433 43.6192C150.332 43.8218 150.276 44.0279 150.27 44.2321C150.255 44.4874 150.312 44.6926 150.438 44.8461C150.567 45.0003 150.737 45.1236 150.948 45.2236C151.161 45.3211 151.402 45.4021 151.674 45.4642C151.943 45.5262 152.218 45.5901 152.494 45.6607C152.773 45.7307 153.037 45.8125 153.294 45.9082C153.55 46.003 153.764 46.1315 153.94 46.2919C154.116 46.4523 154.241 46.6566 154.316 46.9109C154.395 47.1626 154.392 47.4773 154.312 47.8575C154.158 48.5887 153.785 49.1543 153.196 49.5578C152.603 49.9586 151.851 50.1587 150.937 50.1587C150.53 50.1587 150.161 50.1062 149.83 49.9991C149.503 49.8941 149.236 49.7328 149.026 49.5172C148.817 49.3017 148.677 49.0362 148.603 48.718C148.53 48.399 148.537 48.0257 148.627 47.5946H149.347V47.5929Z" fill="white"/>
<path d="M160.907 46.06C160.883 45.6349 160.756 45.3047 160.523 45.0685C160.289 44.8314 159.953 44.7125 159.514 44.7125C159.178 44.7125 158.875 44.7814 158.605 44.9202C158.335 45.0591 158.098 45.2435 157.892 45.4738C157.689 45.704 157.519 45.9618 157.39 46.2505C157.257 46.5394 157.159 46.8308 157.095 47.1231C157.028 47.423 157 47.7136 157.011 47.999C157.022 48.2844 157.079 48.5396 157.186 48.7663C157.291 48.9931 157.451 49.1741 157.662 49.3086C157.874 49.4431 158.153 49.5112 158.496 49.5112C158.983 49.5112 159.406 49.3759 159.762 49.1069C160.115 48.8362 160.38 48.4628 160.555 47.9878H161.256C161.133 48.3007 160.98 48.5878 160.795 48.8474C160.614 49.1086 160.403 49.3311 160.162 49.5156C159.921 49.7026 159.65 49.8458 159.35 49.9483C159.051 50.0509 158.721 50.1027 158.363 50.1027C157.912 50.1027 157.536 50.026 157.242 49.8724C156.945 49.7182 156.719 49.5087 156.562 49.2414C156.404 48.9749 156.314 48.6594 156.293 48.2939C156.271 47.9284 156.303 47.5378 156.39 47.1231C156.471 46.7264 156.607 46.3497 156.798 45.9894C156.987 45.6272 157.219 45.3073 157.498 45.0297C157.776 44.7513 158.097 44.5323 158.458 44.3667C158.818 44.2021 159.21 44.1201 159.635 44.1201C160.293 44.1201 160.791 44.277 161.131 44.5909C161.47 44.9047 161.617 45.3953 161.575 46.0608L160.907 46.06Z" fill="white"/>
<path d="M163.185 49.948L164.39 44.2724H165.047L163.843 49.948H163.185ZM164.62 43.0351L164.83 42.0583H165.551L165.342 43.0351H164.62Z" fill="white"/>
<path d="M167.425 47.2624C167.361 47.5702 167.338 47.8599 167.361 48.1349C167.382 48.4091 167.45 48.647 167.569 48.8462C167.684 49.0479 167.851 49.2082 168.067 49.3298C168.283 49.4496 168.549 49.51 168.861 49.51C169.291 49.51 169.685 49.3971 170.039 49.1704C170.392 48.9436 170.664 48.6212 170.856 48.2065H171.59C171.45 48.4763 171.292 48.7273 171.113 48.9565C170.933 49.1858 170.727 49.3859 170.492 49.5592C170.259 49.7298 169.997 49.8643 169.705 49.9583C169.412 50.0532 169.087 50.1015 168.728 50.1015C168.277 50.1015 167.901 50.0247 167.606 49.8713C167.309 49.7169 167.083 49.5075 166.926 49.2402C166.768 48.9738 166.68 48.6608 166.659 48.2978C166.636 47.9365 166.669 47.5477 166.757 47.1322C166.844 46.7148 166.987 46.3235 167.184 45.9589C167.38 45.594 167.618 45.2742 167.9 45.0018C168.182 44.7276 168.5 44.5112 168.854 44.3543C169.209 44.1965 169.588 44.1189 169.999 44.1189C170.781 44.1189 171.337 44.3887 171.67 44.9259C172.001 45.4622 172.054 46.2416 171.828 47.2632L167.425 47.2624ZM171.25 46.7158C171.309 46.439 171.324 46.1768 171.3 45.9329C171.274 45.6889 171.208 45.4769 171.097 45.2984C170.988 45.1182 170.831 44.9759 170.626 44.8707C170.42 44.7646 170.174 44.7121 169.881 44.7121C169.588 44.7121 169.321 44.7664 169.075 44.875C168.83 44.9863 168.609 45.132 168.413 45.3138C168.215 45.4958 168.043 45.7079 167.897 45.9485C167.752 46.189 167.634 46.4458 167.548 46.7158H171.25Z" fill="white"/>
<path d="M174.132 49.948H173.474L174.68 44.2724H175.337L175.172 45.0622C175.495 44.7845 175.813 44.5578 176.13 44.3835C176.448 44.206 176.805 44.1189 177.199 44.1189C177.549 44.1189 177.863 44.1801 178.135 44.3009C178.409 44.4207 178.617 44.6311 178.755 44.9302C178.849 45.1345 178.887 45.3432 178.869 45.5587C178.851 45.7752 178.816 46.0002 178.767 46.2329L177.976 49.9471H177.321L178.108 46.2441C178.217 45.732 178.188 45.3484 178.016 45.0932C177.845 44.8389 177.494 44.7112 176.969 44.7112C176.765 44.7112 176.571 44.7405 176.388 44.8026C176.206 44.8655 176.037 44.9475 175.879 45.0483C175.722 45.1527 175.581 45.269 175.457 45.4001C175.331 45.532 175.23 45.6708 175.151 45.8157C175.05 45.9993 174.973 46.1735 174.921 46.3416C174.868 46.5097 174.823 46.6916 174.778 46.8908L174.132 49.948Z" fill="white"/>
<path d="M185.341 46.06C185.32 45.6349 185.191 45.3047 184.959 45.0685C184.725 44.8314 184.39 44.7125 183.951 44.7125C183.615 44.7125 183.312 44.7814 183.041 44.9202C182.769 45.0591 182.532 45.2435 182.33 45.4738C182.124 45.704 181.956 45.9618 181.824 46.2505C181.693 46.5394 181.595 46.8308 181.529 47.1231C181.463 47.423 181.436 47.7136 181.446 47.999C181.457 48.2844 181.516 48.5396 181.621 48.7663C181.728 48.9931 181.886 49.1741 182.099 49.3086C182.309 49.4431 182.588 49.5112 182.931 49.5112C183.42 49.5112 183.842 49.3759 184.196 49.1069C184.551 48.8362 184.816 48.4628 184.992 47.9878H185.693C185.568 48.3007 185.414 48.5878 185.233 48.8474C185.05 49.1086 184.838 49.3311 184.596 49.5156C184.356 49.7026 184.087 49.8458 183.787 49.9483C183.489 50.0509 183.16 50.1027 182.801 50.1027C182.348 50.1027 181.973 50.026 181.677 49.8724C181.382 49.7182 181.155 49.5087 180.998 49.2414C180.841 48.9749 180.751 48.6594 180.729 48.2939C180.706 47.9284 180.74 47.5378 180.828 47.1231C180.908 46.7264 181.043 46.3497 181.233 45.9894C181.424 45.6272 181.658 45.3073 181.934 45.0297C182.213 44.7513 182.532 44.5323 182.893 44.3667C183.256 44.2011 183.649 44.1201 184.072 44.1201C184.729 44.1201 185.228 44.277 185.567 44.5909C185.907 44.9047 186.054 45.3953 186.011 46.0608L185.341 46.06Z" fill="white"/>
<path d="M188.496 47.2624C188.431 47.5702 188.407 47.8599 188.431 48.1349C188.452 48.4091 188.522 48.647 188.639 48.8462C188.756 49.0479 188.922 49.2082 189.137 49.3298C189.353 49.4496 189.618 49.51 189.932 49.51C190.362 49.51 190.754 49.3971 191.11 49.1704C191.462 48.9436 191.736 48.6212 191.927 48.2065H192.66C192.521 48.4763 192.361 48.7273 192.183 48.9565C192.002 49.1868 191.798 49.3859 191.564 49.5592C191.33 49.7298 191.067 49.8643 190.774 49.9583C190.484 50.0532 190.157 50.1015 189.8 50.1015C189.348 50.1015 188.972 50.0247 188.676 49.8713C188.381 49.7169 188.154 49.5075 187.997 49.2402C187.84 48.9738 187.752 48.6608 187.728 48.2978C187.707 47.9365 187.739 47.5477 187.827 47.1322C187.914 46.7148 188.057 46.3235 188.253 45.9589C188.451 45.594 188.689 45.2742 188.972 45.0018C189.252 44.7276 189.57 44.5112 189.925 44.3543C190.279 44.1965 190.66 44.1189 191.069 44.1189C191.851 44.1189 192.409 44.3887 192.739 44.9259C193.074 45.4622 193.125 46.2416 192.899 47.2632L188.496 47.2624ZM192.321 46.7158C192.377 46.439 192.395 46.1768 192.368 45.9329C192.343 45.6889 192.276 45.4769 192.168 45.2984C192.056 45.1182 191.899 44.9759 191.694 44.8707C191.491 44.7646 191.242 44.7121 190.952 44.7121C190.659 44.7121 190.39 44.7664 190.145 44.875C189.901 44.9863 189.68 45.132 189.481 45.3138C189.285 45.4958 189.114 45.7079 188.968 45.9485C188.821 46.189 188.703 46.4458 188.616 46.7158H192.321Z" fill="white"/>
<path d="M201.028 40.9644V52.9397H200.47V40.9644H201.028Z" fill="white"/>
<path d="M207.932 49.9484L209.608 42.0596H214.856L214.725 42.6949H210.222L209.608 45.5453H213.672L213.542 46.179H209.476L208.808 49.3129H213.422L213.29 49.9484H207.932Z" fill="white"/>
<path d="M216.062 44.2727H216.775L217.585 49.1379L220.456 44.2727H221.169L217.76 49.9484H217.028L216.062 44.2727Z" fill="white"/>
<path d="M221.967 49.948L223.171 44.2724H223.829L222.624 49.948H221.967ZM223.402 43.0351L223.611 42.0583H224.334L224.126 43.0351H223.402Z" fill="white"/>
<path d="M231.293 42.0583H231.95L230.273 49.9472H229.618L229.823 48.9513H229.802C229.671 49.1402 229.512 49.3066 229.332 49.4488C229.15 49.5919 228.959 49.711 228.761 49.8058C228.565 49.8997 228.365 49.9721 228.166 50.0248C227.964 50.0748 227.772 50.1014 227.59 50.1014C227.131 50.1014 226.754 50.0248 226.46 49.8712C226.168 49.717 225.948 49.5074 225.804 49.2402C225.657 48.9738 225.577 48.6582 225.556 48.2927C225.539 47.9271 225.574 47.5366 225.662 47.1219C225.749 46.7253 225.881 46.3467 226.056 45.982C226.23 45.6165 226.451 45.2975 226.719 45.0225C226.985 44.7483 227.296 44.531 227.65 44.3655C228.004 44.2008 228.397 44.119 228.827 44.119C229.231 44.119 229.596 44.2086 229.93 44.3888C230.261 44.5673 230.493 44.8328 230.625 45.1829L231.293 42.0583ZM230.219 47.0883C230.284 46.7666 230.304 46.4615 230.277 46.1726C230.252 45.8838 230.181 45.6321 230.064 45.4164C229.948 45.201 229.786 45.0293 229.577 44.9009C229.368 44.7742 229.116 44.7103 228.816 44.7103C228.473 44.7103 228.162 44.7767 227.884 44.9131C227.606 45.0457 227.362 45.2319 227.15 45.4656C226.937 45.6993 226.762 45.9726 226.624 46.283C226.486 46.5925 226.387 46.9253 226.329 47.2848C226.256 47.6408 226.238 47.959 226.279 48.2323C226.318 48.5065 226.406 48.7384 226.537 48.9272C226.668 49.1186 226.841 49.2635 227.056 49.3617C227.272 49.4584 227.519 49.5092 227.796 49.5092C228.103 49.5092 228.39 49.4462 228.656 49.3239C228.924 49.1979 229.161 49.029 229.367 48.8135C229.575 48.597 229.752 48.3418 229.893 48.0461C230.038 47.7512 230.146 47.4331 230.219 47.0883Z" fill="white"/>
<path d="M233.834 47.2624C233.771 47.5702 233.747 47.8599 233.771 48.1349C233.792 48.4091 233.86 48.647 233.978 48.8462C234.094 49.0479 234.261 49.2082 234.477 49.3298C234.692 49.4496 234.957 49.51 235.271 49.51C235.703 49.51 236.093 49.3971 236.449 49.1704C236.802 48.9436 237.076 48.6212 237.266 48.2065H237.999C237.86 48.4763 237.7 48.7273 237.522 48.9565C237.342 49.1868 237.137 49.3859 236.903 49.5592C236.669 49.7298 236.406 49.8643 236.113 49.9583C235.822 50.0532 235.495 50.1015 235.139 50.1015C234.687 50.1015 234.313 50.0247 234.016 49.8713C233.72 49.7169 233.493 49.5075 233.336 49.2402C233.179 48.9738 233.09 48.6608 233.067 48.2978C233.045 47.9365 233.078 47.5477 233.167 47.1322C233.255 46.7148 233.396 46.3235 233.593 45.9589C233.79 45.594 234.03 45.2742 234.311 45.0018C234.592 44.7276 234.911 44.5112 235.264 44.3543C235.618 44.1965 236.001 44.1189 236.409 44.1189C237.192 44.1189 237.748 44.3887 238.08 44.9259C238.414 45.4622 238.464 46.2416 238.238 47.2632L233.834 47.2624ZM237.658 46.7158C237.716 46.439 237.734 46.1768 237.707 45.9329C237.682 45.6889 237.615 45.4769 237.507 45.2984C237.396 45.1182 237.239 44.9759 237.035 44.8707C236.83 44.7646 236.581 44.7121 236.291 44.7121C235.997 44.7121 235.731 44.7664 235.484 44.875C235.239 44.9863 235.019 45.132 234.82 45.3138C234.624 45.4958 234.453 45.7079 234.307 45.9485C234.16 46.189 234.042 46.4458 233.955 46.7158H237.658Z" fill="white"/>
<path d="M240.539 49.948H239.882L241.086 44.2724H241.744L241.579 45.0622C241.901 44.7845 242.22 44.5578 242.539 44.3835C242.855 44.206 243.211 44.1189 243.607 44.1189C243.955 44.1189 244.269 44.1801 244.543 44.3009C244.815 44.4207 245.023 44.6311 245.163 44.9302C245.256 45.1345 245.296 45.3432 245.279 45.5587C245.259 45.7752 245.224 46.0002 245.172 46.2329L244.385 49.9471H243.727L244.515 46.2441C244.626 45.732 244.594 45.3484 244.423 45.0932C244.252 44.8389 243.902 44.7112 243.378 44.7112C243.173 44.7112 242.978 44.7405 242.796 44.8026C242.611 44.8655 242.443 44.9475 242.286 45.0483C242.128 45.1527 241.988 45.269 241.865 45.4001C241.741 45.532 241.638 45.6708 241.559 45.8157C241.456 45.9993 241.378 46.1735 241.328 46.3416C241.276 46.5097 241.229 46.6916 241.187 46.8908L240.539 49.948Z" fill="white"/>
<path d="M251.749 46.06C251.725 45.6349 251.599 45.3047 251.365 45.0685C251.131 44.8314 250.795 44.7125 250.356 44.7125C250.02 44.7125 249.717 44.7814 249.448 44.9202C249.176 45.0591 248.938 45.2435 248.735 45.4738C248.531 45.704 248.361 45.9618 248.232 46.2505C248.1 46.5394 248.002 46.8308 247.935 47.1231C247.869 47.423 247.841 47.7136 247.854 47.999C247.864 48.2844 247.921 48.5396 248.029 48.7663C248.133 48.9931 248.292 49.1741 248.504 49.3086C248.717 49.4431 248.994 49.5112 249.338 49.5112C249.825 49.5112 250.248 49.3759 250.604 49.1069C250.956 48.8362 251.223 48.4628 251.397 47.9878H252.098C251.974 48.3007 251.822 48.5878 251.638 48.8474C251.456 49.1086 251.243 49.3311 251.003 49.5156C250.764 49.7026 250.491 49.8458 250.192 49.9483C249.892 50.0509 249.565 50.1027 249.206 50.1027C248.752 50.1027 248.378 50.026 248.084 49.8724C247.787 49.7182 247.561 49.5087 247.404 49.2414C247.246 48.9749 247.156 48.6594 247.134 48.2939C247.114 47.9284 247.145 47.5378 247.232 47.1231C247.313 46.7264 247.448 46.3497 247.64 45.9894C247.829 45.6272 248.061 45.3073 248.34 45.0297C248.619 44.7513 248.937 44.5323 249.3 44.3667C249.661 44.2021 250.052 44.1201 250.477 44.1201C251.135 44.1201 251.631 44.277 251.972 44.5909C252.312 44.9047 252.458 45.3953 252.417 46.0608L251.749 46.06Z" fill="white"/>
<path d="M254.902 47.2624C254.837 47.5702 254.815 47.8599 254.837 48.1349C254.858 48.4091 254.927 48.647 255.045 48.8462C255.161 49.0479 255.328 49.2082 255.543 49.3298C255.758 49.4496 256.024 49.51 256.338 49.51C256.768 49.51 257.161 49.3971 257.515 49.1704C257.869 48.9436 258.141 48.6212 258.331 48.2065H259.067C258.928 48.4763 258.768 48.7273 258.588 48.9565C258.41 49.1868 258.202 49.3859 257.968 49.5592C257.735 49.7298 257.474 49.8643 257.181 49.9583C256.888 50.0532 256.563 50.1015 256.206 50.1015C255.752 50.1015 255.378 50.0247 255.081 49.8713C254.785 49.7169 254.56 49.5075 254.401 49.2402C254.245 48.9738 254.156 48.6608 254.134 48.2978C254.113 47.9365 254.145 47.5477 254.232 47.1322C254.32 46.7148 254.462 46.3235 254.659 45.9589C254.857 45.594 255.095 45.2742 255.377 45.0018C255.66 44.7276 255.976 44.5112 256.331 44.3543C256.684 44.1965 257.066 44.1189 257.475 44.1189C258.256 44.1189 258.813 44.3887 259.147 44.9259C259.479 45.4622 259.531 46.2416 259.306 47.2632L254.902 47.2624ZM258.726 46.7158C258.784 46.439 258.801 46.1768 258.775 45.9329C258.75 45.6889 258.684 45.4769 258.574 45.2984C258.464 45.1182 258.308 44.9759 258.103 44.8707C257.897 44.7646 257.65 44.7121 257.356 44.7121C257.065 44.7121 256.799 44.7664 256.552 44.875C256.307 44.9863 256.085 45.132 255.889 45.3138C255.69 45.4958 255.519 45.7079 255.374 45.9485C255.227 46.189 255.11 46.4458 255.024 46.7158H258.726Z" fill="white"/>
</g>
</g>
<defs>
<clipPath id="clip0_180_43">
<rect width="276" height="56.0406" fill="white"/>
</clipPath>
</defs>
</svg>
