<svg width="25" height="25" viewBox="0 0 25 25" fill="none" xmlns="http://www.w3.org/2000/svg">
<g clip-path="url(#clip0_152_243)">
<path d="M24.2609 7.89634C24.2609 7.89634 24.0266 6.24165 23.3047 5.51509C22.3906 4.55884 21.3688 4.55415 20.9 4.4979C17.5438 4.25415 12.5047 4.25415 12.5047 4.25415H12.4953C12.4953 4.25415 7.45625 4.25415 4.1 4.4979C3.63125 4.55415 2.60938 4.55884 1.69531 5.51509C0.973438 6.24165 0.74375 7.89634 0.74375 7.89634C0.74375 7.89634 0.5 9.84165 0.5 11.7823V13.601C0.5 15.5416 0.739062 17.487 0.739062 17.487C0.739062 17.487 0.973437 19.1417 1.69062 19.8682C2.60469 20.8245 3.80469 20.7917 4.33906 20.8948C6.26094 21.0776 12.5 21.1338 12.5 21.1338C12.5 21.1338 17.5438 21.1245 20.9 20.8854C21.3688 20.8292 22.3906 20.8245 23.3047 19.8682C24.0266 19.1417 24.2609 17.487 24.2609 17.487C24.2609 17.487 24.5 15.5463 24.5 13.601V11.7823C24.5 9.84165 24.2609 7.89634 24.2609 7.89634ZM10.0203 15.8088V9.06353L16.5031 12.4479L10.0203 15.8088Z" fill="white"/>
</g>
<defs>
<clipPath id="clip0_152_243">
<rect width="24" height="24" fill="white" transform="translate(0.5 0.696289)"/>
</clipPath>
</defs>
</svg>
