<svg width="25" height="25" viewBox="0 0 25 25" fill="none" xmlns="http://www.w3.org/2000/svg">
<g clip-path="url(#clip0_152_244)">
<path d="M12.75 0.696289C6.12264 0.696289 0.75 6.06893 0.75 12.6963C0.75 18.3238 4.62456 23.046 9.85128 24.343V16.3635H7.37688V12.6963H9.85128V11.1161C9.85128 7.03181 11.6998 5.13869 15.7097 5.13869C16.47 5.13869 17.7818 5.28797 18.3185 5.43677V8.76077C18.0353 8.73101 17.5433 8.71613 16.9322 8.71613C14.9647 8.71613 14.2044 9.46157 14.2044 11.3993V12.6963H18.1241L17.4506 16.3635H14.2044V24.6084C20.1463 23.8909 24.7505 18.8316 24.7505 12.6963C24.75 6.06893 19.3774 0.696289 12.75 0.696289Z" fill="white"/>
</g>
<defs>
<clipPath id="clip0_152_244">
<rect width="24" height="24" fill="white" transform="translate(0.75 0.696289)"/>
</clipPath>
</defs>
</svg>
