<svg width="25" height="25" viewBox="0 0 25 25" fill="none" xmlns="http://www.w3.org/2000/svg">
<path d="M2.5 6.69629L9.41302 10.6133C11.9616 12.0573 13.0384 12.0573 15.587 10.6133L22.5 6.69629" stroke="white" stroke-width="1.5" stroke-linejoin="round"/>
<path d="M2.51577 14.1719C2.58114 17.2375 2.61383 18.7702 3.74496 19.9057C4.87608 21.0411 6.45033 21.0806 9.59883 21.1597C11.5393 21.2085 13.4607 21.2085 15.4012 21.1597C18.5497 21.0806 20.1239 21.0411 21.2551 19.9057C22.3862 18.7702 22.4189 17.2375 22.4842 14.1719C22.5053 13.1862 22.5053 12.2064 22.4842 11.2207C22.4189 8.15515 22.3862 6.62238 21.2551 5.48695C20.1239 4.35152 18.5497 4.31197 15.4012 4.23286C13.4607 4.1841 11.5393 4.1841 9.59882 4.23285C6.45033 4.31195 4.87608 4.3515 3.74495 5.48694C2.61382 6.62237 2.58114 8.15514 2.51576 11.2207C2.49474 12.2064 2.49475 13.1862 2.51577 14.1719Z" stroke="white" stroke-width="1.5" stroke-linejoin="round"/>
</svg>
