<svg width="24" height="25" viewBox="0 0 24 25" fill="none" xmlns="http://www.w3.org/2000/svg">
<path d="M12 22.6963C17.5228 22.6963 22 18.2191 22 12.6963C22 7.17344 17.5228 2.69629 12 2.69629C6.47715 2.69629 2 7.17344 2 12.6963C2 18.2191 6.47715 22.6963 12 22.6963Z" stroke="white" stroke-width="1.5"/>
<path d="M8 12.6963C8 18.6963 12 22.6963 12 22.6963C12 22.6963 16 18.6963 16 12.6963C16 6.69629 12 2.69629 12 2.69629C12 2.69629 8 6.69629 8 12.6963Z" stroke="white" stroke-width="1.5" stroke-linejoin="round"/>
<path d="M21 15.6963H3" stroke="white" stroke-width="1.5" stroke-linecap="round" stroke-linejoin="round"/>
<path d="M21 9.69629H3" stroke="white" stroke-width="1.5" stroke-linecap="round" stroke-linejoin="round"/>
</svg>
