<svg width="24" height="25" viewBox="0 0 24 25" fill="none" xmlns="http://www.w3.org/2000/svg">
<g clip-path="url(#clip0_152_245)">
<path d="M12 2.85723C15.2063 2.85723 15.5859 2.87129 16.8469 2.92754C18.0188 2.9791 18.6516 3.17598 19.0734 3.34004C19.6313 3.55566 20.0344 3.81816 20.4516 4.23535C20.8734 4.65723 21.1313 5.05566 21.3469 5.61348C21.5109 6.03535 21.7078 6.67285 21.7594 7.84004C21.8156 9.10566 21.8297 9.48535 21.8297 12.6869C21.8297 15.8932 21.8156 16.2729 21.7594 17.5338C21.7078 18.7057 21.5109 19.3385 21.3469 19.7604C21.1313 20.3182 20.8687 20.7213 20.4516 21.1385C20.0297 21.5604 19.6313 21.8182 19.0734 22.0338C18.6516 22.1979 18.0141 22.3947 16.8469 22.4463C15.5813 22.5025 15.2016 22.5166 12 22.5166C8.79375 22.5166 8.41406 22.5025 7.15313 22.4463C5.98125 22.3947 5.34844 22.1979 4.92656 22.0338C4.36875 21.8182 3.96563 21.5557 3.54844 21.1385C3.12656 20.7166 2.86875 20.3182 2.65313 19.7604C2.48906 19.3385 2.29219 18.701 2.24063 17.5338C2.18438 16.2682 2.17031 15.8885 2.17031 12.6869C2.17031 9.48066 2.18438 9.10098 2.24063 7.84004C2.29219 6.66816 2.48906 6.03535 2.65313 5.61348C2.86875 5.05566 3.13125 4.65254 3.54844 4.23535C3.97031 3.81348 4.36875 3.55566 4.92656 3.34004C5.34844 3.17598 5.98594 2.9791 7.15313 2.92754C8.41406 2.87129 8.79375 2.85723 12 2.85723ZM12 0.696289C8.74219 0.696289 8.33438 0.710352 7.05469 0.766602C5.77969 0.822852 4.90313 1.0291 4.14375 1.32441C3.35156 1.63379 2.68125 2.0416 2.01563 2.71191C1.34531 3.37754 0.9375 4.04785 0.628125 4.83535C0.332812 5.59941 0.126563 6.47129 0.0703125 7.74629C0.0140625 9.03066 0 9.43848 0 12.6963C0 15.9541 0.0140625 16.3619 0.0703125 17.6416C0.126563 18.9166 0.332812 19.7932 0.628125 20.5525C0.9375 21.3447 1.34531 22.015 2.01563 22.6807C2.68125 23.3463 3.35156 23.7588 4.13906 24.0635C4.90313 24.3588 5.775 24.565 7.05 24.6213C8.32969 24.6775 8.7375 24.6916 11.9953 24.6916C15.2531 24.6916 15.6609 24.6775 16.9406 24.6213C18.2156 24.565 19.0922 24.3588 19.8516 24.0635C20.6391 23.7588 21.3094 23.3463 21.975 22.6807C22.6406 22.015 23.0531 21.3447 23.3578 20.5572C23.6531 19.7932 23.8594 18.9213 23.9156 17.6463C23.9719 16.3666 23.9859 15.9588 23.9859 12.701C23.9859 9.44316 23.9719 9.03535 23.9156 7.75566C23.8594 6.48066 23.6531 5.6041 23.3578 4.84473C23.0625 4.04785 22.6547 3.37754 21.9844 2.71191C21.3188 2.04629 20.6484 1.63379 19.8609 1.3291C19.0969 1.03379 18.225 0.827539 16.95 0.771289C15.6656 0.710352 15.2578 0.696289 12 0.696289Z" fill="white"/>
<path d="M12 6.53223C8.59688 6.53223 5.83594 9.29316 5.83594 12.6963C5.83594 16.0994 8.59688 18.8604 12 18.8604C15.4031 18.8604 18.1641 16.0994 18.1641 12.6963C18.1641 9.29316 15.4031 6.53223 12 6.53223ZM12 16.6947C9.79219 16.6947 8.00156 14.9041 8.00156 12.6963C8.00156 10.4885 9.79219 8.69785 12 8.69785C14.2078 8.69785 15.9984 10.4885 15.9984 12.6963C15.9984 14.9041 14.2078 16.6947 12 16.6947Z" fill="white"/>
<path d="M19.8469 6.28843C19.8469 7.08531 19.2 7.72749 18.4078 7.72749C17.6109 7.72749 16.9688 7.08062 16.9688 6.28843C16.9688 5.49155 17.6156 4.84937 18.4078 4.84937C19.2 4.84937 19.8469 5.49624 19.8469 6.28843Z" fill="white"/>
</g>
<defs>
<clipPath id="clip0_152_245">
<rect width="24" height="24" fill="white" transform="translate(0 0.696289)"/>
</clipPath>
</defs>
</svg>
