<svg width="25" height="25" viewBox="0 0 25 25" fill="none" xmlns="http://www.w3.org/2000/svg">
<g clip-path="url(#clip0_152_247)">
<path d="M22.7234 0.696289H2.27187C1.29219 0.696289 0.5 1.46973 0.5 2.42598V22.9619C0.5 23.9182 1.29219 24.6963 2.27187 24.6963H22.7234C23.7031 24.6963 24.5 23.9182 24.5 22.9666V2.42598C24.5 1.46973 23.7031 0.696289 22.7234 0.696289ZM7.62031 21.1479H4.05781V9.6916H7.62031V21.1479ZM5.83906 8.13066C4.69531 8.13066 3.77188 7.20723 3.77188 6.06816C3.77188 4.9291 4.69531 4.00566 5.83906 4.00566C6.97813 4.00566 7.90156 4.9291 7.90156 6.06816C7.90156 7.20254 6.97813 8.13066 5.83906 8.13066ZM20.9516 21.1479H17.3937V15.5791C17.3937 14.2525 17.3703 12.5416 15.5422 12.5416C13.6906 12.5416 13.4094 13.99 13.4094 15.4854V21.1479H9.85625V9.6916H13.2687V11.2572H13.3156C13.7891 10.3572 14.9516 9.40566 16.6813 9.40566C20.2859 9.40566 20.9516 11.7775 20.9516 14.8619V21.1479Z" fill="white"/>
</g>
<defs>
<clipPath id="clip0_152_247">
<rect width="24" height="24" fill="white" transform="translate(0.5 0.696289)"/>
</clipPath>
</defs>
</svg>
